<?xml version="1.0" encoding="UTF-8"?>
<svg width="174px" height="18px" viewBox="0 0 174 18" version="1.1" xmlns="http://www.w3.org/2000/svg" xmlns:xlink="http://www.w3.org/1999/xlink">
    <!-- Generator: Sketch 64 (93537) - https://sketch.com -->
    <title>logo</title>
    <desc>Created with Sketch.</desc>
    <g id="Page-1" stroke="none" stroke-width="1" fill="none" fill-rule="evenodd">
        <g id="logo" fill-rule="nonzero">
            <path d="M41.7029,7.15543 L41.7029,3.02063 L45.3425,3.02063 C45.6891,3.02063 46.0192,3.05365 46.3329,3.11967 C46.663,3.16919 46.9518,3.26823 47.1994,3.41678 C47.447,3.56534 47.6451,3.77166 47.7937,4.03576 C47.9422,4.29986 48.0165,4.63824 48.0165,5.05089 C48.0165,5.79367 47.7937,6.33012 47.348,6.66025 C46.9023,6.99037 46.3329,7.15543 45.6396,7.15543 L41.7029,7.15543 Z M37.8157,0 L37.8157,17.6781 L46.3824,17.6781 C47.1747,17.6781 47.9422,17.5791 48.685,17.381 C49.4443,17.1829 50.1128,16.8776 50.6905,16.4649 C51.2847,16.0523 51.7551,15.5241 52.1018,14.8803 C52.4484,14.2201 52.6217,13.4443 52.6217,12.553 C52.6217,11.447 52.3494,10.5062 51.8047,9.7304 C51.2765,8.9381 50.4677,8.38514 49.3783,8.07153 C50.1706,7.69188 50.7648,7.20495 51.1609,6.61073 C51.5736,6.01651 51.7799,5.27373 51.7799,4.38239 C51.7799,3.55708 51.6396,2.86382 51.359,2.30261 C51.0949,1.7414 50.7153,1.29574 50.2201,0.965613 C49.7249,0.618982 49.1307,0.371389 48.4374,0.222834 C47.7441,0.0742779 46.9766,0 46.1348,0 L37.8157,0 Z M41.7029,14.6575 L41.7029,9.80468 L45.9367,9.80468 C46.7785,9.80468 47.4553,10.0028 47.967,10.3989 C48.4787,10.7785 48.7345,11.4223 48.7345,12.3301 C48.7345,12.7923 48.652,13.1719 48.4869,13.469 C48.3384,13.7662 48.132,14.0055 47.8679,14.1871 C47.6038,14.3521 47.2985,14.4759 46.9518,14.5585 C46.6052,14.6245 46.2421,14.6575 45.8624,14.6575 L41.7029,14.6575 Z" id="Shape" fill="#FFFFFF"></path>
            <path d="M63.4936,9.90371 L57.7742,9.90371 C57.7907,9.65612 57.8402,9.37551 57.9227,9.0619 C58.0218,8.74828 58.1786,8.45117 58.3931,8.17056 C58.6242,7.88996 58.9213,7.65887 59.2845,7.4773 C59.6641,7.27923 60.1345,7.18019 60.6958,7.18019 C61.5541,7.18019 62.1896,7.41128 62.6022,7.87345 C63.0314,8.33562 63.3285,9.01238 63.4936,9.90371 Z M57.7742,12.132 L67.0094,12.132 C67.0754,11.1417 66.9929,10.1926 66.7618,9.28473 C66.5307,8.37689 66.1511,7.56809 65.6229,6.85832 C65.1112,6.14856 64.4509,5.58735 63.6421,5.17469 C62.8333,4.74553 61.8842,4.53095 60.7948,4.53095 C59.8209,4.53095 58.9296,4.70426 58.1208,5.05089 C57.3285,5.39752 56.6435,5.8762 56.0658,6.48693 C55.4881,7.08116 55.0424,7.79092 54.7288,8.61623 C54.4152,9.44154 54.2583,10.3329 54.2583,11.2902 C54.2583,12.2806 54.4069,13.1884 54.704,14.0138 C55.0176,14.8391 55.455,15.5488 56.0163,16.1431 C56.5775,16.7373 57.2625,17.1994 58.0713,17.5296 C58.8801,17.8432 59.7879,18 60.7948,18 C62.2473,18 63.4853,17.6699 64.5087,17.0096 C65.5321,16.3494 66.2914,15.2517 66.7865,13.7166 L63.6916,13.7166 C63.5761,14.1128 63.2625,14.4924 62.7508,14.8556 C62.2391,15.2022 61.6284,15.3755 60.9186,15.3755 C59.9282,15.3755 59.1689,15.1197 58.6407,14.608 C58.1125,14.0963 57.8237,13.271 57.7742,12.132 Z" id="Shape" fill="#FFFFFF"></path>
            <path d="M73.5512,4.87758 L73.5512,1.03989 L70.0354,1.03989 L70.0354,4.87758 L67.9061,4.87758 L67.9061,7.22971 L70.0354,7.22971 L70.0354,14.7813 C70.0354,15.425 70.1427,15.945 70.3573,16.3411 C70.5719,16.7373 70.8607,17.0426 71.2239,17.2572 C71.6035,17.4718 72.0327,17.6121 72.5113,17.6781 C73.0065,17.7607 73.5265,17.8019 74.0712,17.8019 C74.4178,17.8019 74.7727,17.7937 75.1358,17.7772 C75.499,17.7607 75.8291,17.7276 76.1262,17.6781 L76.1262,14.9546 C75.9611,14.9876 75.7878,15.0124 75.6063,15.0289 C75.4247,15.0454 75.2349,15.0536 75.0368,15.0536 C74.4426,15.0536 74.0464,14.9546 73.8484,14.7565 C73.6503,14.5585 73.5512,14.1623 73.5512,13.5681 L73.5512,7.22971 L76.1262,7.22971 L76.1262,4.87758 L73.5512,4.87758 Z" id="Path" fill="#FFFFFF"></path>
            <path d="M82.2557,4.87758 L82.2557,1.03989 L78.7399,1.03989 L78.7399,4.87758 L76.6106,4.87758 L76.6106,7.22971 L78.7399,7.22971 L78.7399,14.7813 C78.7399,15.425 78.8471,15.945 79.0617,16.3411 C79.2763,16.7373 79.5652,17.0426 79.9283,17.2572 C80.3079,17.4718 80.7371,17.6121 81.2158,17.6781 C81.711,17.7607 82.2309,17.8019 82.7756,17.8019 C83.1222,17.8019 83.4771,17.7937 83.8403,17.7772 C84.2034,17.7607 84.5335,17.7276 84.8306,17.6781 L84.8306,14.9546 C84.6656,14.9876 84.4923,15.0124 84.3107,15.0289 C84.1291,15.0454 83.9393,15.0536 83.7412,15.0536 C83.147,15.0536 82.7509,14.9546 82.5528,14.7565 C82.3547,14.5585 82.2557,14.1623 82.2557,13.5681 L82.2557,7.22971 L84.8306,7.22971 L84.8306,4.87758 L82.2557,4.87758 Z" id="Path" fill="#FFFFFF"></path>
            <path d="M95.1197,9.90371 L89.4003,9.90371 C89.4168,9.65612 89.4663,9.37551 89.5488,9.0619 C89.6479,8.74828 89.8047,8.45117 90.0193,8.17056 C90.2503,7.88996 90.5474,7.65887 90.9106,7.4773 C91.2902,7.27923 91.7607,7.18019 92.3219,7.18019 C93.1802,7.18019 93.8157,7.41128 94.2283,7.87345 C94.6575,8.33562 94.9546,9.01238 95.1197,9.90371 Z M89.4003,12.132 L98.635,12.132 C98.702,11.1417 98.619,10.1926 98.388,9.28473 C98.157,8.37689 97.777,7.56809 97.249,6.85832 C96.737,6.14856 96.077,5.58735 95.2682,5.17469 C94.4594,4.74553 93.5103,4.53095 92.4209,4.53095 C91.447,4.53095 90.5557,4.70426 89.7469,5.05089 C88.9546,5.39752 88.2696,5.8762 87.6919,6.48693 C87.1142,7.08116 86.6685,7.79092 86.3549,8.61623 C86.0413,9.44154 85.8845,10.3329 85.8845,11.2902 C85.8845,12.2806 86.033,13.1884 86.3301,14.0138 C86.6437,14.8391 87.0812,15.5488 87.6424,16.1431 C88.2036,16.7373 88.8886,17.1994 89.6974,17.5296 C90.5062,17.8432 91.414,18 92.4209,18 C93.8734,18 95.1114,17.6699 96.135,17.0096 C97.158,16.3494 97.917,15.2517 98.413,13.7166 L95.3177,13.7166 C95.2022,14.1128 94.8886,14.4924 94.3769,14.8556 C93.8652,15.2022 93.2545,15.3755 92.5447,15.3755 C91.5543,15.3755 90.795,15.1197 90.2668,14.608 C89.7386,14.0963 89.4498,13.271 89.4003,12.132 Z" id="Shape" fill="#FFFFFF"></path>
            <path d="M100.721,4.87758 L100.721,17.6781 L104.236,17.6781 L104.236,11.9092 C104.236,11.3315 104.294,10.795 104.41,10.2999 C104.525,9.80468 104.715,9.37551 104.979,9.01238 C105.26,8.63274 105.623,8.33563 106.069,8.12105 C106.514,7.90646 107.059,7.79917 107.703,7.79917 C107.917,7.79917 108.14,7.81568 108.371,7.84869 C108.602,7.8652 108.8,7.88996 108.966,7.92297 L108.966,4.65475 C108.685,4.57221 108.429,4.53095 108.198,4.53095 C107.752,4.53095 107.323,4.59697 106.91,4.72902 C106.498,4.86107 106.11,5.05089 105.747,5.29849 C105.384,5.52957 105.062,5.81843 104.781,6.16506 C104.501,6.49519 104.278,6.85832 104.113,7.25447 L104.063,7.25447 L104.063,4.87758 L100.721,4.87758 Z" id="Path" fill="#FFFFFF"></path>
            <polygon id="Path" fill="#FFFFFF" points="110.988 0 110.988 17.6781 113.216 17.6781 113.216 2.97111 113.266 2.97111 118.787 17.6781 120.792 17.6781 126.314 2.97111 126.363 2.97111 126.363 17.6781 128.592 17.6781 128.592 0 125.373 0 119.777 14.8556 114.206 0"></polygon>
            <path d="M141.048,10.0523 L133.694,10.0523 C133.727,9.55708 133.835,9.09491 134.016,8.66575 C134.198,8.22008 134.445,7.83219 134.759,7.50206 C135.073,7.17194 135.444,6.91609 135.873,6.73452 C136.319,6.53645 136.814,6.43741 137.359,6.43741 C137.887,6.43741 138.365,6.53645 138.795,6.73452 C139.24,6.91609 139.62,7.17194 139.934,7.50206 C140.264,7.81568 140.52,8.19532 140.701,8.64099 C140.899,9.08666 141.015,9.55708 141.048,10.0523 Z M143.078,13.6176 L140.998,13.6176 C140.817,14.4594 140.437,15.0867 139.859,15.4993 C139.298,15.912 138.572,16.1183 137.68,16.1183 C136.987,16.1183 136.385,16.0028 135.873,15.7717 C135.361,15.5406 134.94,15.2352 134.61,14.8556 C134.28,14.4594 134.041,14.0138 133.892,13.5186 C133.744,13.0069 133.678,12.4704 133.694,11.9092 L143.276,11.9092 C143.309,11.1334 143.235,10.3164 143.053,9.45805 C142.888,8.59973 142.575,7.80743 142.112,7.08115 C141.667,6.35488 141.064,5.76066 140.305,5.29849 C139.562,4.81981 138.621,4.58047 137.482,4.58047 C136.608,4.58047 135.799,4.74553 135.056,5.07565 C134.33,5.40578 133.694,5.86795 133.15,6.46217 C132.621,7.0564 132.209,7.75791 131.912,8.56671 C131.614,9.37552 131.466,10.2668 131.466,11.2407 C131.499,12.2146 131.639,13.1142 131.887,13.9395 C132.151,14.7648 132.539,15.4746 133.051,16.0688 C133.562,16.663 134.189,17.1252 134.932,17.4553 C135.691,17.7854 136.583,17.9505 137.606,17.9505 C139.059,17.9505 140.264,17.5873 141.221,16.8611 C142.178,16.1348 142.797,15.0536 143.078,13.6176 Z" id="Shape" fill="#FFFFFF"></path>
            <path d="M148.379,4.87758 L148.379,1.03989 L146.275,1.03989 L146.275,4.87758 L144.096,4.87758 L144.096,6.73452 L146.275,6.73452 L146.275,14.8803 C146.275,15.4746 146.332,15.9532 146.448,16.3164 C146.564,16.6795 146.737,16.9601 146.968,17.1582 C147.216,17.3563 147.529,17.4966 147.909,17.5791 C148.305,17.6451 148.775,17.6781 149.32,17.6781 L150.929,17.6781 L150.929,15.8212 L149.964,15.8212 C149.634,15.8212 149.361,15.8129 149.147,15.7964 C148.949,15.7634 148.792,15.7056 148.676,15.6231 C148.561,15.5406 148.478,15.425 148.429,15.2765 C148.396,15.1279 148.379,14.9298 148.379,14.6823 L148.379,6.73452 L150.929,6.73452 L150.929,4.87758 L148.379,4.87758 Z" id="Path" fill="#FFFFFF"></path>
            <path d="M162.156,10.0523 L154.802,10.0523 C154.836,9.55708 154.943,9.09491 155.124,8.66575 C155.306,8.22008 155.554,7.83219 155.867,7.50206 C156.181,7.17194 156.552,6.91609 156.981,6.73452 C157.427,6.53645 157.922,6.43741 158.467,6.43741 C158.995,6.43741 159.474,6.53645 159.903,6.73452 C160.349,6.91609 160.728,7.17194 161.042,7.50206 C161.372,7.81568 161.628,8.19532 161.809,8.64099 C162.007,9.08666 162.123,9.55708 162.156,10.0523 Z M164.186,13.6176 L162.106,13.6176 C161.925,14.4594 161.545,15.0867 160.968,15.4993 C160.406,15.912 159.68,16.1183 158.789,16.1183 C158.095,16.1183 157.493,16.0028 156.981,15.7717 C156.47,15.5406 156.049,15.2352 155.719,14.8556 C155.388,14.4594 155.149,14.0138 155.001,13.5186 C154.852,13.0069 154.786,12.4704 154.802,11.9092 L164.384,11.9092 C164.417,11.1334 164.343,10.3164 164.162,9.45805 C163.996,8.59973 163.683,7.80743 163.221,7.08115 C162.775,6.35488 162.173,5.76066 161.413,5.29849 C160.67,4.81981 159.73,4.58047 158.591,4.58047 C157.716,4.58047 156.907,4.74553 156.164,5.07565 C155.438,5.40578 154.802,5.86795 154.258,6.46217 C153.73,7.0564 153.317,7.75791 153.02,8.56671 C152.723,9.37552 152.574,10.2668 152.574,11.2407 C152.607,12.2146 152.747,13.1142 152.995,13.9395 C153.259,14.7648 153.647,15.4746 154.159,16.0688 C154.67,16.663 155.298,17.1252 156.04,17.4553 C156.8,17.7854 157.691,17.9505 158.714,17.9505 C160.167,17.9505 161.372,17.5873 162.329,16.8611 C163.287,16.1348 163.906,15.0536 164.186,13.6176 Z" id="Shape" fill="#FFFFFF"></path>
            <path d="M166.492,4.87758 L166.492,17.6781 L168.596,17.6781 L168.596,11.9835 C168.596,11.1582 168.679,10.4319 168.844,9.80468 C169.009,9.16093 169.273,8.61623 169.636,8.17056 C169.999,7.7249 170.478,7.38652 171.072,7.15543 C171.666,6.92435 172.384,6.8088 173.226,6.8088 L173.226,4.58047 C172.087,4.54746 171.146,4.77854 170.404,5.27373 C169.661,5.76891 169.034,6.53645 168.522,7.57634 L168.472,7.57634 L168.472,4.87758 L166.492,4.87758 Z" id="Path" fill="#FFFFFF"></path>
            <rect id="Rectangle" fill="#F73859" x="10.672" y="1.17194" width="15.1188" height="3.55737" rx="1.77868"></rect>
            <rect id="Rectangle" fill="#F73859" x="8.8933" y="7.39734" width="11.5614" height="3.55737" rx="1.77868"></rect>
            <rect id="Rectangle" fill="#F73859" x="0" y="7.39734" width="7.11474" height="3.55737" rx="1.77868"></rect>
            <rect id="Rectangle" fill="#F73859" x="22.2335" y="7.39734" width="3.55737" height="3.55737" rx="1.77868"></rect>
            <rect id="Rectangle" fill="#F73859" x="0" y="13.6227" width="3.55737" height="3.55737" rx="1.77868"></rect>
            <rect id="Rectangle" fill="#F73859" x="5.33606" y="13.6227" width="20.4549" height="3.55737" rx="1.77868"></rect>
        </g>
    </g>
</svg>